<?xml version="1.0" standalone="no"?>
<!DOCTYPE svg PUBLIC "-//W3C//DTD SVG 20010904//EN"
 "http://www.w3.org/TR/2001/REC-SVG-20010904/DTD/svg10.dtd">
<svg version="1.0" xmlns="http://www.w3.org/2000/svg"
 width="27.000000pt" height="27.000000pt" viewBox="0 0 27.000000 27.000000"
 preserveAspectRatio="xMidYMid meet">
<metadata>
Created by potrace 1.16, written by Peter Selinger 2001-2019
</metadata>
<g transform="translate(0.000000,27.000000) scale(0.100000,-0.100000)"
fill="#000000" stroke="none">
<path d="M1 228 c0 -35 2 -39 9 -22 11 27 48 54 73 54 16 0 18 -6 14 -32 -3
-25 1 -38 17 -51 l21 -19 -22 -18 c-13 -10 -23 -21 -23 -23 0 -3 10 -7 23 -9
19 -3 22 -10 25 -52 l3 -48 -70 4 c-39 2 -71 0 -71 -4 0 -4 61 -8 135 -8 l135
0 0 135 0 135 -135 0 -135 0 1 -42z"/>
</g>
</svg>
